# Blender 4.5.0
# www.blender.org
mtllib Model1.mtl
o Cube
v -0.600000 -0.600000 1.000000
v -0.600000 0.600000 1.000000
v -1.000000 -1.000000 -1.000000
v -1.000000 1.000000 -1.000000
v 0.600000 -0.600000 1.000000
v 0.600000 0.600000 1.000000
v 1.000000 -1.000000 -1.000000
v 1.000000 1.000000 -1.000000
v -1.000000 1.500000 1.000000
v -1.000000 1.500000 -1.000000
v 1.000000 1.500000 -1.000000
v 1.000000 1.500000 1.000000
v 2.700000 1.000000 -1.000000
v 2.202082 1.000000 2.202082
v -1.000000 1.000000 2.700000
v 2.700000 1.500000 -1.000000
v 2.202082 1.500000 2.202082
v -1.000000 1.500000 2.700000
v -1.000000 -1.000000 1.000000
v -1.000000 1.000000 1.000000
v 1.000000 1.000000 1.000000
v 1.000000 -1.000000 1.000000
v -0.600000 -0.600000 0.300000
v -0.600000 0.600000 0.300000
v 0.600000 0.600000 0.300000
v 0.600000 -0.600000 0.300000
v -1.000000 3.500000 -1.000000
v -1.000000 3.000000 1.000000
v -1.000000 3.500000 0.500000
v -1.000000 3.250000 0.933013
v -1.000000 3.433013 0.750000
v 1.000000 3.500000 0.500000
v 1.000000 3.000000 1.000000
v 1.000000 3.433013 0.750000
v 1.000000 3.250000 0.933013
v 1.000000 3.500000 -0.500000
v 1.000000 3.000000 -1.000000
v 0.500000 3.500000 -1.000000
v 1.000000 3.425811 -0.745412
v 0.925811 3.500000 -0.745412
v 0.941356 3.441355 -0.858646
v 0.925811 3.245412 -1.000000
v 1.000000 3.245412 -0.925811
v 0.941356 3.358646 -0.941356
v 0.745412 3.500000 -0.925811
v 0.745412 3.425811 -1.000000
v 0.858646 3.441355 -0.941356
v -1.000000 -0.333333 1.000000
v -1.000000 0.333333 1.000000
v -1.000000 0.333333 -1.000000
v -1.000000 -0.333333 -1.000000
v 1.000000 0.333333 -1.000000
v 1.000000 -0.333333 -1.000000
v 1.000000 0.333333 1.000000
v 1.000000 -0.333333 1.000000
v -0.600000 -0.200000 1.000000
v -0.600000 0.200000 1.000000
v 0.600000 0.200000 1.000000
v 0.600000 -0.200000 1.000000
v -0.600000 -0.200000 0.300000
v -0.600000 0.200000 0.300000
v 0.600000 0.200000 0.300000
v 0.600000 -0.200000 0.300000
v -1.391360 -0.333333 1.311187
v -1.391360 0.333333 1.311187
v -1.353553 0.333333 -1.353553
v -1.353553 -0.333333 -1.353553
v 1.353553 0.333333 -1.353553
v 1.353553 -0.333333 -1.353553
v 1.391360 0.333333 1.311187
v 1.391360 -0.333333 1.311187
v -0.280671 -0.200000 1.384746
v -0.280671 0.200000 1.384746
v 0.280671 0.200000 1.384746
v 0.280671 -0.200000 1.384746
v -0.246447 -0.200000 0.653553
v -0.246447 0.200000 0.653553
v 0.246447 0.200000 0.653553
v 0.246447 -0.200000 0.653553
v -0.731945 2.763235 1.000000
v 0.788685 2.763235 1.000000
v -0.096458 2.173140 1.000000
v 0.618465 2.173140 1.000000
v 0.618465 1.855396 1.000000
v -0.448246 1.855396 1.000000
v -0.448246 2.048312 1.000000
v -0.107806 2.456840 1.000000
v -0.720597 2.456840 1.000000
v -0.731945 2.763235 0.995364
v 0.788685 2.763235 0.995364
v -0.096458 2.173140 0.995364
v 0.618465 2.173140 0.995364
v 0.618465 1.855396 0.995364
v -0.448246 1.855396 0.995364
v -0.448246 2.048312 0.995364
v -0.107806 2.456840 0.995364
v -0.720597 2.456840 0.995364
v -0.731945 2.763235 1.195364
v 0.788685 2.763235 1.195364
v -0.096458 2.173140 1.195364
v 0.618465 2.173140 1.195364
v 0.618465 1.855396 1.195364
v -0.448246 1.855396 1.195364
v -0.448246 2.048312 1.195364
v -0.107806 2.456840 1.195364
v -0.720597 2.456840 1.195364
vn -1.0000 -0.0000 -0.0000
vn -0.0000 -0.0000 -1.0000
vn 1.0000 -0.0000 -0.0000
vn -0.0000 1.0000 -0.0000
vn -0.0000 -1.0000 -0.0000
vn 0.1537 -0.0000 0.9881
vn 0.9881 -0.0000 0.1537
vn -0.0000 -0.0000 1.0000
vn -0.0000 0.9914 0.1305
vn -0.0000 0.9659 0.2588
vn -0.0000 0.7071 0.7071
vn -0.0000 0.2588 0.9659
vn -0.0000 0.1305 0.9914
vn 0.6889 0.6889 -0.2253
vn 0.7430 0.6105 -0.2742
vn 0.6443 0.6443 -0.4122
vn 0.6105 0.7430 -0.2742
vn 0.7430 0.2742 -0.6105
vn 0.6443 0.4122 -0.6443
vn 0.6889 0.2253 -0.6889
vn 0.6105 0.2742 -0.7430
vn 0.2742 0.6105 -0.7430
vn 0.4122 0.6443 -0.6443
vn 0.2253 0.6889 -0.6889
vn 0.2742 0.7430 -0.6105
vn -0.0899 -0.9959 0.0093
vn -0.0794 -0.9968 0.0082
vn 0.0826 0.9965 0.0085
vn 0.0912 0.9958 0.0094
vn 0.0899 0.9959 0.0093
vn 0.0794 0.9968 0.0082
vn -0.0826 0.9965 0.0085
vn -0.0912 0.9958 0.0094
vn 0.0899 -0.9959 0.0093
vn 0.0826 -0.9965 0.0085
vn 0.0912 -0.9958 0.0094
vn 0.0794 -0.9968 0.0082
vn -0.0826 -0.9965 0.0085
vn -0.0912 -0.9958 0.0094
vn -0.9989 -0.0000 0.0468
vn 0.9989 -0.0000 0.0468
vn 0.0661 -0.0000 0.9978
vn -0.0661 -0.0000 0.9978
vn 0.9999 -0.0000 -0.0142
vn -0.9999 -0.0000 -0.0142
vn -0.0899 0.9959 0.0093
vn -0.0794 0.9968 0.0082
vn 0.7682 -0.6402 -0.0000
vn -0.5547 0.8321 -0.0000
vn 0.9993 0.0370 -0.0000
vn 0.5547 -0.8321 -0.0000
vn -0.9993 -0.0370 -0.0000
vn -0.7682 0.6402 -0.0000
vt 0.541667 0.000000
vt 0.625000 0.000000
vt 0.625000 0.250000
vt 0.541667 0.250000
vt 0.625000 0.500000
vt 0.541667 0.500000
vt 0.625000 0.750000
vt 0.541667 0.750000
vt 0.425000 0.950000
vt 0.425000 0.800000
vt 0.125000 0.500000
vt 0.375000 0.500000
vt 0.375000 0.750000
vt 0.125000 0.750000
vt 0.625000 1.000000
vt 0.875000 0.750000
vt 0.525000 0.950000
vt 0.575000 0.950000
vt 0.541667 1.000000
vt 0.475000 0.800000
vt 0.458333 0.750000
vt 0.375000 1.000000
vt 0.575000 0.800000
vt 0.525000 0.800000
vt 0.525000 0.950000
vt 0.475000 0.950000
vt 0.475000 0.950000
vt 0.625000 0.687500
vt 0.875000 0.687500
vt 0.875000 0.718750
vt 0.625000 0.718750
vt 0.875000 0.750000
vt 0.625000 0.743370
vt 0.875000 0.750000
vt 0.625000 0.008373
vt 0.625000 0.031250
vt 0.625000 0.062500
vt 0.651414 0.750000
vt 0.762057 0.750000
vt 0.672692 0.750000
vt 0.672692 0.750000
vt 0.806031 0.750000
vt 0.763476 0.750000
vt 0.840075 0.750000
vt 0.841493 0.750000
vt 0.625000 0.562500
vt 0.625000 0.531827
vt 0.625663 0.517669
vt 0.634274 0.531824
vt 0.625000 0.509277
vt 0.625000 0.500663
vt 0.625000 0.500000
vt 0.625000 0.490726
vt 0.625155 0.468331
vt 0.635639 0.492970
vt 0.651799 0.464299
vt 0.656823 0.509274
vt 0.875000 0.500000
vt 0.475000 0.800000
vt 0.458333 0.500000
vt 0.458333 1.000000
vt 0.375000 0.250000
vt 0.458333 0.250000
vt 0.375000 0.000000
vt 0.458333 0.000000
s 1
f 49/1/1 20/2/1 4/3/1 50/4/1
f 50/4/2 4/3/2 8/5/2 52/6/2
f 52/6/3 8/5/3 21/7/3 54/8/3
f 1/9/4 5/10/4 26/10/4 23/9/4
f 3/11/5 7/12/5 22/13/5 19/14/5
f 4/3/1 20/2/1 9/2/1 10/3/1
f 8/5/2 11/5/2 16/5/2 13/5/2
f 8/5/2 4/3/2 10/3/2 11/5/2
f 11/5/4 12/7/4 17/7/4 16/5/4
f 15/15/6 14/7/6 17/7/6 18/15/6
f 14/7/7 13/5/7 16/5/7 17/7/7
f 21/7/5 8/5/5 13/5/5 14/7/5
f 12/7/4 9/16/4 18/16/4 17/7/4
f 20/15/5 21/7/5 14/7/5 15/15/5
f 9/2/1 20/2/1 15/2/1 18/2/1
f 57/17/8 2/18/8 20/15/8 49/19/8
f 59/20/8 5/10/8 22/13/8 55/21/8
f 5/10/8 1/9/8 19/22/8 22/13/8
f 2/18/8 6/23/8 21/7/8 20/15/8
f 62/24/8 25/23/8 24/18/8 61/25/8
f 56/26/3 1/9/3 23/9/3 60/27/3
f 6/23/5 2/18/5 24/18/5 25/23/5
f 58/24/1 6/23/1 25/23/1 62/24/1
f 32/28/9 29/29/9 31/30/10 34/31/10
f 34/31/11 31/30/11 30/32/11 35/33/11
f 35/33/12 30/32/12 28/34/13 33/7/13
f 10/3/1 9/2/1 28/2/1 30/35/1 31/36/1 29/37/1 27/3/1
f 9/16/8 12/7/8 33/7/13 81/38/8 82/39/8 83/40/8 84/41/8 85/42/8 86/42/8 87/43/8 88/44/8 80/45/8 28/34/13
f 36/46/14 39/47/15 41/48/16 40/49/17
f 39/47/15 43/50/18 44/51/19 41/48/16
f 37/52/20 42/53/21 44/51/19 43/50/18
f 42/53/21 46/54/22 47/55/23 44/51/19
f 38/56/24 45/57/25 47/55/23 46/54/22
f 45/57/25 40/49/17 41/48/16 47/55/23
f 41/48/16 44/51/19 47/55/23
f 36/46/4 40/49/4 45/57/4 38/56/4 27/58/4 29/29/9 32/28/9
f 11/5/2 10/3/2 27/3/2 38/56/2 46/54/2 42/53/2 37/52/2
f 12/7/3 11/5/3 37/52/3 43/50/3 39/47/3 36/46/3 32/28/3 34/31/3 35/33/3 33/7/3
f 5/10/1 59/20/1 63/59/1 26/10/1
f 55/21/26 53/60/5 69/60/5 71/21/27
f 2/18/3 57/17/3 61/25/3 24/18/3
f 61/25/4 57/17/28 73/17/29 77/25/4
f 26/10/8 63/59/8 60/27/8 23/9/8
f 57/17/28 49/19/30 65/19/31 73/17/29
f 6/23/8 58/24/8 54/8/8 21/7/8
f 58/24/32 62/24/4 78/24/4 74/24/33
f 1/9/8 56/26/8 48/61/8 19/22/8
f 48/61/34 56/26/35 72/26/36 64/61/37
f 7/12/3 53/60/3 55/21/3 22/13/3
f 49/1/30 50/4/4 66/4/4 65/1/31
f 3/62/2 51/63/2 53/60/2 7/12/2
f 63/59/5 59/20/38 75/20/39 79/59/5
f 19/64/1 48/65/1 51/63/1 3/62/1
f 59/20/38 55/21/26 71/21/27 75/20/39
f 75/20/40 74/24/40 78/24/40 79/59/40
f 73/17/41 72/26/41 76/27/41 77/25/41
f 79/59/8 78/24/8 77/25/8 76/27/8
f 74/24/42 75/20/42 71/21/42 70/8/42
f 72/26/43 73/17/43 65/19/43 64/61/43
f 69/60/44 68/6/44 70/8/44 71/21/44
f 67/63/2 66/4/2 68/6/2 69/60/2
f 64/65/45 65/1/45 66/4/45 67/63/45
f 56/26/35 60/27/5 76/27/5 72/26/36
f 52/6/4 54/8/46 70/8/47 68/6/4
f 60/27/5 63/59/5 79/59/5 76/27/5
f 53/60/5 51/63/5 67/63/5 69/60/5
f 62/24/4 61/25/4 77/25/4 78/24/4
f 50/4/4 52/6/4 68/6/4 66/4/4
f 54/8/46 58/24/32 74/24/33 70/8/47
f 51/63/5 48/65/34 64/65/37 67/63/5
f 97/44/5 96/43/5 105/43/5 106/44/5
f 28/34/13 80/45/8 81/38/8 33/7/13
f 86/42/3 85/42/3 94/42/3 95/42/3
f 83/40/5 82/39/5 91/39/5 92/40/5
f 87/43/48 86/42/48 95/42/48 96/43/48
f 84/41/1 83/40/1 92/40/1 93/41/1
f 81/38/5 80/45/5 89/45/5 90/38/5
f 88/44/4 87/43/4 96/43/4 97/44/4
f 85/42/4 84/41/4 93/41/4 94/42/4
f 82/39/49 81/38/49 90/38/49 91/39/49
f 80/45/50 88/44/50 97/44/50 89/45/50
f 98/45/8 106/44/8 105/43/8 104/42/8 103/42/8 102/41/8 101/40/8 100/39/8 99/38/8
f 94/42/5 93/41/5 102/41/5 103/42/5
f 91/39/51 90/38/51 99/38/51 100/39/51
f 89/45/52 97/44/52 106/44/52 98/45/52
f 95/42/1 94/42/1 103/42/1 104/42/1
f 92/40/4 91/39/4 100/39/4 101/40/4
f 96/43/53 95/42/53 104/42/53 105/43/53
f 93/41/3 92/40/3 101/40/3 102/41/3
f 90/38/4 89/45/4 98/45/4 99/38/4
